<svg xmlns="http://www.w3.org/2000/svg" viewBox="0 0 920 640" role="img" aria-label="Video editing timeline and job listings">
  <defs>
    <linearGradient id="screen" x1="0" x2="1" y1="0" y2="1">
      <stop offset="0" stop-color="#21312f"/>
      <stop offset="1" stop-color="#0f1716"/>
    </linearGradient>
    <linearGradient id="lime" x1="0" x2="1">
      <stop offset="0" stop-color="#dff275"/>
      <stop offset="1" stop-color="#7de2c4"/>
    </linearGradient>
  </defs>
  <rect width="920" height="640" rx="38" fill="#f2f5e9"/>
  <rect x="48" y="54" width="824" height="500" rx="28" fill="#17201f"/>
  <rect x="86" y="94" width="488" height="284" rx="18" fill="url(#screen)"/>
  <rect x="606" y="94" width="228" height="408" rx="18" fill="#edf2df"/>
  <circle cx="122" cy="126" r="10" fill="#ff795f"/>
  <circle cx="152" cy="126" r="10" fill="#dff275"/>
  <circle cx="182" cy="126" r="10" fill="#7de2c4"/>
  <rect x="116" y="165" width="188" height="112" rx="12" fill="#dff275"/>
  <rect x="326" y="165" width="208" height="112" rx="12" fill="#73c7f3"/>
  <path d="M180 198l64 32-64 32z" fill="#17201f"/>
  <rect x="116" y="308" width="418" height="12" rx="6" fill="#d7decd" opacity=".25"/>
  <rect x="116" y="336" width="284" height="12" rx="6" fill="#d7decd" opacity=".18"/>
  <g transform="translate(86 408)">
    <rect width="748" height="96" rx="16" fill="#243432"/>
    <rect x="24" y="22" width="154" height="18" rx="9" fill="url(#lime)"/>
    <rect x="190" y="22" width="96" height="18" rx="9" fill="#ffb15f"/>
    <rect x="298" y="22" width="132" height="18" rx="9" fill="#73c7f3"/>
    <rect x="442" y="22" width="74" height="18" rx="9" fill="#f08fbb"/>
    <rect x="24" y="58" width="86" height="18" rx="9" fill="#73c7f3"/>
    <rect x="122" y="58" width="210" height="18" rx="9" fill="#dff275"/>
    <rect x="344" y="58" width="144" height="18" rx="9" fill="#ff795f"/>
    <rect x="500" y="58" width="190" height="18" rx="9" fill="#7de2c4"/>
  </g>
  <g fill="#17201f">
    <text x="630" y="138" font-family="Arial, sans-serif" font-size="26" font-weight="700">Editor roles</text>
    <text x="630" y="178" font-family="Arial, sans-serif" font-size="16">Remote YouTube editor</text>
    <text x="630" y="206" font-family="Arial, sans-serif" font-size="16">Freelance short-form</text>
    <text x="630" y="234" font-family="Arial, sans-serif" font-size="16">Assistant editor</text>
  </g>
  <rect x="630" y="272" width="162" height="36" rx="18" fill="#dff275"/>
  <rect x="630" y="330" width="132" height="12" rx="6" fill="#17201f" opacity=".25"/>
  <rect x="630" y="358" width="170" height="12" rx="6" fill="#17201f" opacity=".18"/>
  <rect x="630" y="386" width="148" height="12" rx="6" fill="#17201f" opacity=".18"/>
  <rect x="630" y="438" width="168" height="30" rx="15" fill="#17201f"/>
  <text x="655" y="459" font-family="Arial, sans-serif" font-size="14" font-weight="700" fill="#edf2df">GET ALERTS</text>
  <rect x="314" y="554" width="292" height="28" rx="14" fill="#17201f"/>
  <rect x="380" y="586" width="160" height="18" rx="9" fill="#17201f"/>
</svg>
